<!DOCTYPE svg PUBLIC "-//W3C//DTD SVG 1.1//EN" "http://www.w3.org/Graphics/SVG/1.1/DTD/svg11.dtd">
<!-- Uploaded to: SVG Repo, www.svgrepo.com, Transformed by: SVG Repo Mixer Tools -->
<svg height="800px" width="800px" version="1.1" id="_x32_" xmlns="http://www.w3.org/2000/svg" xmlns:xlink="http://www.w3.org/1999/xlink" viewBox="0 0 512 512" xml:space="preserve" fill="#ffffff">
<g id="SVGRepo_bgCarrier" stroke-width="0"/>
<g id="SVGRepo_tracerCarrier" stroke-linecap="round" stroke-linejoin="round"/>
<g id="SVGRepo_iconCarrier"> <style type="text/css"> .st0{fill:#ffffff;} </style> <g> <path class="st0" d="M503.903,448.633c-9.479-1.182-18.047-3.328-25.47-6.415c-11.15-4.665-19.664-11.282-25.62-20.31 c-5.934-9.042-9.483-20.8-9.502-36.444c0-8.888,1.174-19.004,3.76-30.356c1.617-7.13,2.391-14.082,2.391-20.785 c0.015-21.499-8.001-40.27-20.746-53.55c-12.717-13.304-30.205-21.212-48.82-21.204c-5.388-0.008-10.85,0.661-16.29,2.029V106.771 c5.105-4.611,15.684-13.358,24.668-15.597c14.859-3.702,27.732-12.418,27.732-27.729c0-15.318-12.418-27.728-27.732-27.728H27.728 C12.414,35.717,0,48.127,0,63.445c0,15.311,12.872,24.027,27.728,27.729c8.985,2.239,19.567,10.986,24.68,15.597V405.23 c-5.113,4.611-15.695,13.359-24.68,15.598C12.872,424.529,0,433.246,0,448.555c0,15.311,12.414,27.728,27.728,27.728h360.547 c15.314,0,27.732-12.417,27.732-27.728c0-15.31-12.872-24.027-27.732-27.728c-8.984-2.239-19.563-10.979-24.668-15.598V280.96 c5.486-1.936,10.952-2.908,16.29-2.908c13.339,0,26.017,5.637,35.468,15.504c9.428,9.868,15.594,23.848,15.61,40.768 c0,5.28-0.607,10.848-1.932,16.679c-2.834,12.495-4.218,23.949-4.218,34.462c-0.004,12.309,1.905,23.358,5.633,33.077 c5.56,14.595,15.354,26.025,27.724,33.91c12.383,7.923,27.195,12.487,43.427,14.525c5.066,0.638,9.688-2.963,10.318-8.024 C512.561,453.889,508.969,449.263,503.903,448.633z M80.136,109.655h141.33l-141.33,38.723V109.655z M335.876,402.345h-140.63 l140.63-38.52V402.345z M335.876,349.448l-193.099,52.897h-62.64v-36.25l255.74-70.066V349.448z M335.876,281.66l-255.74,70.066 v-53.38l255.74-70.113V281.66z M335.876,213.864l-255.74,70.113v-53.426l255.74-70.066V213.864z M335.876,146.108l-255.74,70.074 v-53.418l193.796-53.108h61.944V146.108z"/> </g> </g>
</svg>